<svg width="26" height="28" viewBox="0 0 26 28" fill="none" xmlns="http://www.w3.org/2000/svg">
<path fill-rule="evenodd" clip-rule="evenodd" d="M3.88562 0.173838C4.14115 -0.00402335 4.46841 -0.0484569 4.76321 0.0546835L9.43748 1.69004H18.5737L23.248 0.0546835C23.5428 -0.0484569 23.87 -0.00402335 24.1256 0.173838C24.3811 0.351699 24.533 0.640822 24.533 0.949159V5.28405C25.9738 9.09938 26.4426 11.974 25.5368 14.3508C24.6649 16.6386 22.6126 18.2219 19.7025 19.7405V27.0508C19.7025 27.575 19.2714 28 18.7395 28C18.2077 28 17.7766 27.575 17.7766 27.0508V19.164C17.7766 18.8072 17.9796 18.4806 18.3021 18.3185C21.4398 16.7412 23.0849 15.3861 23.7338 13.6833C24.3876 11.9678 24.1348 9.62627 22.6689 5.7905C22.6281 5.68355 22.6071 5.57021 22.6071 5.45592V2.29324L19.0616 3.53367C18.9582 3.56986 18.8493 3.58835 18.7395 3.58835H9.27165C9.1619 3.58835 9.05296 3.56986 8.94953 3.53367L5.40406 2.29324V5.45592C5.40406 5.58611 5.37689 5.7149 5.32424 5.83429C3.57181 9.80817 3.93291 12.6824 4.99749 14.6394C6.08448 16.6377 7.98183 17.8241 9.53035 18.2497C9.94665 18.3642 10.2346 18.738 10.2346 19.164V27.0508C10.2346 27.575 9.80347 28 9.27165 28C8.73982 28 8.30869 27.575 8.30869 27.0508V24.086C7.33064 24.0603 6.12547 23.8856 4.90208 23.4511C3.17032 22.8362 1.35573 21.6822 0.134334 19.6473C-0.136466 19.1961 0.0150638 18.614 0.472785 18.3471C0.930506 18.0802 1.52109 18.2296 1.79189 18.6807C2.73457 20.2512 4.14035 21.1629 5.55488 21.6652C6.55457 22.0202 7.53556 22.1616 8.30869 22.1869V19.8502C6.49835 19.1762 4.51099 17.7623 3.30016 15.5365C1.92676 13.0117 1.62445 9.57809 3.47814 5.26097V0.949159C3.47814 0.640822 3.63009 0.351699 3.88562 0.173838Z" fill="#1D1B20"/>
</svg>
