<svg width="151" height="615" viewBox="0 0 151 615" fill="none" xmlns="http://www.w3.org/2000/svg">
<path fill-rule="evenodd" clip-rule="evenodd" d="M118.5 604.981L118.09 605.018C115.797 605.225 114 607.153 114 609.5C114 611.985 116.015 614 118.5 614C120.985 614 123 611.985 123 609.5C123 607.153 121.203 605.225 118.91 605.018L118.5 604.981ZM119 506.996V604.022C121.803 604.275 124 606.631 124 609.5C124 612.538 121.538 615 118.5 615C115.462 615 113 612.538 113 609.5C113 606.631 115.197 604.275 118 604.022L118 507H32.5C14.5507 507 0 492.449 0 474.5C0 456.551 14.5507 442 32.5 442H118L118 313C99.7746 313 85 298.225 85 280C85 261.775 99.7746 247 118 247V0H119V247.015C136.763 247.543 151 262.109 151 280C151 297.891 136.763 312.456 119 312.985L119 442.003C136.719 442.27 151 456.718 151 474.5C151 492.282 136.719 506.729 119 506.996ZM118.744 443H32.5C15.103 443 1 457.103 1 474.5C1 491.897 15.103 506 32.5 506H118.744L118.985 505.996C136.158 505.737 150 491.735 150 474.5C150 457.265 136.158 443.263 118.985 443.004L118.744 443ZM118.486 312H118C100.327 312 86 297.673 86 280C86 262.327 100.327 248 118 248H118.486L118.97 248.014C136.194 248.527 150 262.651 150 280C150 297.349 136.194 311.473 118.97 311.986L118.486 312Z" fill="#DBD500"/>
</svg>
