<svg width="370" height="891" viewBox="0 0 370 891" fill="none" xmlns="http://www.w3.org/2000/svg">
<path fill-rule="evenodd" clip-rule="evenodd" d="M119 276H370V0H118V523C99.7746 523 85 537.775 85 556C85 574.225 99.7746 589 118 589L118 718H32.5C14.5507 718 0 732.551 0 750.5C0 768.449 14.5507 783 32.5 783H118L118 880.022C115.197 880.275 113 882.631 113 885.5C113 888.538 115.462 891 118.5 891C121.538 891 124 888.538 124 885.5C124 882.631 121.803 880.275 119 880.022L119 782.997C136.719 782.729 151 768.282 151 750.5C151 732.718 136.719 718.271 119 718.004L119 588.986C136.763 588.457 151 573.891 151 556C151 538.109 136.763 523.544 119 523.015L119 276ZM118.486 524H118C100.327 524 86 538.327 86 556C86 573.673 100.327 588 118 588H118.486L118.97 587.986C136.194 587.473 150 573.349 150 556C150 538.651 136.194 524.527 118.97 524.014L118.486 524ZM118.742 719H32.5C15.103 719 1 733.103 1 750.5C1 767.897 15.103 782 32.5 782H118.742L118.985 781.996C136.158 781.737 150 767.735 150 750.5C150 733.265 136.158 719.263 118.985 719.004L118.742 719ZM118.5 880.981L118.09 881.018C115.797 881.225 114 883.153 114 885.5C114 887.985 116.015 890 118.5 890C120.985 890 123 887.985 123 885.5C123 883.153 121.203 881.225 118.91 881.018L118.5 880.981ZM369 1V275H119V1H369Z" fill="#DBD500"/>
</svg>
