<svg width="21" height="23" viewBox="0 0 21 23" fill="none" xmlns="http://www.w3.org/2000/svg">
<path fill-rule="evenodd" clip-rule="evenodd" d="M3.65 8.49446C2.35213 8.49446 1.3 9.54659 1.3 10.8445V18.8445C1.3 20.1423 2.35213 21.1945 3.65 21.1945H11.65C12.9479 21.1945 14 20.1423 14 18.8445V13.8445H15.3V18.8445C15.3 20.8603 13.6658 22.4945 11.65 22.4945H3.65C1.63416 22.4945 0 20.8603 0 18.8445V10.8445C0 8.82862 1.63416 7.19446 3.65 7.19446H8.65V8.49446H3.65Z" fill="#DBD500"/>
<path fill-rule="evenodd" clip-rule="evenodd" d="M10.6441 3.19419L16.4941 3.19419C16.8531 3.19419 17.1441 3.4852 17.1441 3.84419V9.69419C17.1441 10.0532 16.8531 10.3442 16.4941 10.3442C16.1352 10.3442 15.8441 10.0532 15.8441 9.69419L15.8441 5.41343L8.95376 12.3038C8.69992 12.5576 8.28836 12.5576 8.03452 12.3038C7.78068 12.05 7.78068 11.6384 8.03452 11.3846L14.9249 4.49419L10.6441 4.49419C10.2852 4.49419 9.99414 4.20317 9.99414 3.84419C9.99414 3.4852 10.2852 3.19419 10.6441 3.19419Z" fill="#DBD500"/>
</svg>
