<svg width="27" height="25" viewBox="0 0 27 25" fill="none" xmlns="http://www.w3.org/2000/svg">
<path fill-rule="evenodd" clip-rule="evenodd" d="M24.2777 10.6921C25.9107 11.8387 27 13.5618 27 15.7978V24.1616C27 24.6246 26.5809 25 26.0639 25H21.0213C20.5043 25 20.0852 24.6246 20.0852 24.1616V15.9269C19.6814 14.9609 17.7222 14.5791 16.9148 15.9839V24.1616C16.9148 24.6246 16.4957 25 15.9787 25H10.9361C10.4191 25 10 24.6246 10 24.1616V15.7978C10 13.5255 11.0844 11.789 12.7242 10.6437C14.3382 9.51638 16.4454 8.98879 18.5058 9.00018C20.5664 9.01157 22.6688 9.56239 24.2777 10.6921ZM13.8754 11.966C12.6787 12.8018 11.8721 14.0555 11.8721 15.7978V23.3232H15.0426V15.7978C15.0426 15.6842 15.0684 15.5719 15.1183 15.4675C16.584 12.4044 21.1281 12.9621 21.9244 15.5772C21.9463 15.6491 21.9574 15.7233 21.9574 15.7978V23.3232H25.1279V15.7978C25.1279 14.1028 24.3262 12.8567 23.1227 12.0117C21.8951 11.1498 20.2156 10.6865 18.4942 10.6769C16.7727 10.6674 15.0979 11.1121 13.8754 11.966Z" fill="#1D1B20"/>
<path fill-rule="evenodd" clip-rule="evenodd" d="M0 9H8V25H0V9ZM2.00361 10.8644V23.1356H5.99639V10.8644H2.00361Z" fill="#1D1B20"/>
<path fill-rule="evenodd" clip-rule="evenodd" d="M4 1.90826C2.84476 1.90826 1.90826 2.84476 1.90826 4C1.90826 5.15524 2.84476 6.09174 4 6.09174C5.15524 6.09174 6.09174 5.15524 6.09174 4C6.09174 2.84476 5.15524 1.90826 4 1.90826ZM0 4C0 1.79086 1.79086 0 4 0C6.20914 0 8 1.79086 8 4C8 6.20914 6.20914 8 4 8C1.79086 8 0 6.20914 0 4Z" fill="#1D1B20"/>
</svg>
