<svg width="56" height="56" viewBox="0 0 56 56" fill="none" xmlns="http://www.w3.org/2000/svg">
<path d="M21.7026 38V35.6929H29.5874C30.1945 35.6929 30.715 35.5481 31.1487 35.2586C31.5824 34.951 31.9207 34.5619 32.1636 34.0914C32.4064 33.621 32.5279 33.1233 32.5279 32.5986C32.5279 32.0557 32.4064 31.5581 32.1636 31.1057C31.938 30.6352 31.6084 30.2643 31.1747 29.9929C30.7584 29.7033 30.2466 29.5586 29.6394 29.5586H26.2045C25.1809 29.5586 24.2788 29.3414 23.4981 28.9071C22.7175 28.4548 22.1016 27.8395 21.6506 27.0614C21.2169 26.2652 21 25.3695 21 24.3743C21 23.361 21.2082 22.4471 21.6245 21.6329C22.0582 20.8186 22.6568 20.1762 23.4201 19.7057C24.2007 19.2352 25.0942 19 26.1004 19H33.829V21.3071H26.3346C25.7621 21.3071 25.259 21.4519 24.8253 21.7414C24.3916 22.0129 24.062 22.3748 23.8364 22.8271C23.6109 23.2614 23.4981 23.7319 23.4981 24.2386C23.4981 24.7271 23.6022 25.1976 23.8104 25.65C24.0359 26.0843 24.3569 26.4371 24.7732 26.7086C25.2069 26.98 25.7014 27.1157 26.2565 27.1157H29.7695C30.8625 27.1157 31.7993 27.3419 32.5799 27.7943C33.3606 28.2467 33.9591 28.8619 34.3755 29.64C34.7918 30.4181 35 31.3048 35 32.3C35 33.4038 34.7831 34.39 34.3494 35.2586C33.9331 36.109 33.3346 36.7786 32.5539 37.2671C31.7732 37.7557 30.8798 38 29.8736 38H21.7026Z" fill="white"/>
<path fill-rule="evenodd" clip-rule="evenodd" d="M28 53.3333C41.9912 53.3333 53.3333 41.9912 53.3333 28C53.3333 14.0088 41.9912 2.66667 28 2.66667C14.0088 2.66667 2.66667 14.0088 2.66667 28C2.66667 41.9912 14.0088 53.3333 28 53.3333ZM28 56C43.464 56 56 43.464 56 28C56 12.536 43.464 0 28 0C12.536 0 0 12.536 0 28C0 43.464 12.536 56 28 56Z" fill="white"/>
</svg>
